<svg xmlns="http://www.w3.org/2000/svg" height="695pt" version="1.1" viewBox="-69 0 695 695.359" width="695pt">
<g id="surface1">
<path d="M 486.644531 528.546875 C 523.082031 495.667969 541.121094 447.039062 534.945312 398.351562 L 503.089844 143.515625 C 500.878906 125.273438 495.304688 107.601562 486.644531 91.390625 Z M 486.644531 528.546875 " style=" stroke:none;fill-rule:nonzero;fill:rgb(50.588235%,50.196078%,52.156863%);fill-opacity:1;" />
<path d="M 69.644531 91.390625 C 60.984375 107.601562 55.40625 125.273438 53.195312 143.515625 L 21.339844 398.351562 C 15.167969 447.039062 33.207031 495.667969 69.644531 528.546875 Z M 69.644531 91.390625 " style=" stroke:none;fill-rule:nonzero;fill:rgb(50.588235%,50.196078%,52.156863%);fill-opacity:1;" />
<path d="M 69.644531 660.25 C 69.644531 673.042969 80.015625 683.417969 92.808594 683.417969 L 463.476562 683.417969 C 476.269531 683.417969 486.644531 673.046875 486.644531 660.25 L 486.644531 347.5 L 69.644531 347.5 Z M 405.5625 637.082031 L 150.726562 637.082031 L 150.726562 474.917969 L 405.558594 474.917969 L 405.558594 637.082031 Z M 428.726562 393.832031 Z M 428.726562 393.832031 " style=" stroke:none;fill-rule:nonzero;fill:rgb(0%,63.137255%,65.490196%);fill-opacity:1;" />
<path d="M 417.144531 57.917969 L 139.144531 57.917969 C 126.363281 57.953125 116.015625 68.304688 115.976562 81.082031 L 115.976562 347.5 L 440.308594 347.5 L 440.308594 81.082031 C 440.273438 68.304688 429.921875 57.957031 417.144531 57.917969 Z M 382.394531 104.25 Z M 382.394531 104.25 " style=" stroke:none;fill-rule:nonzero;fill:rgb(74.901961%,23.529412%,10.196078%);fill-opacity:1;" />
<path d="M 115.976562 347.5 L 115.976562 81.082031 C 116.015625 68.304688 126.363281 57.957031 139.144531 57.917969 L 417.144531 57.917969 C 429.921875 57.953125 440.273438 68.304688 440.3125 81.082031 L 440.3125 347.5 L 486.644531 347.5 L 486.644531 81.082031 C 486.644531 42.699219 455.527344 11.582031 417.144531 11.582031 L 139.144531 11.582031 C 100.757812 11.582031 69.644531 42.699219 69.644531 81.082031 L 69.644531 347.5 Z M 115.976562 347.5 " style=" stroke:none;fill-rule:nonzero;fill:rgb(74.901961%,69.019608%,45.098039%);fill-opacity:1;" />
<path d="M 521.394531 660.25 C 534.1875 660.25 544.5625 649.878906 544.5625 637.082031 L 544.5625 567.582031 C 544.5625 554.789062 534.191406 544.414062 521.394531 544.414062 L 486.644531 544.414062 L 486.644531 660.25 Z M 521.394531 660.25 " style=" stroke:none;fill-rule:nonzero;fill:rgb(74.901961%,69.019608%,45.098039%);fill-opacity:1;" />
<path d="M 34.894531 544.417969 C 22.097656 544.417969 11.726562 554.789062 11.726562 567.585938 L 11.726562 637.085938 C 11.726562 649.878906 22.097656 660.25 34.894531 660.25 L 69.644531 660.25 L 69.644531 544.417969 Z M 34.894531 544.417969 " style=" stroke:none;fill-rule:nonzero;fill:rgb(74.901961%,69.019608%,45.098039%);fill-opacity:1;" />
<path d="M 150.726562 474.917969 L 405.558594 474.917969 L 405.558594 637.082031 L 150.726562 637.082031 Z M 150.726562 474.917969 " style=" stroke:none;fill-rule:nonzero;fill:rgb(74.901961%,23.529412%,10.196078%);fill-opacity:1;" />
<path d="M 521.394531 532.832031 L 498.632812 532.832031 C 534.96875 497.507812 552.660156 447.207031 546.4375 396.914062 L 514.59375 142.082031 C 512.304688 123.496094 506.765625 105.460938 498.226562 88.796875 L 498.226562 81.082031 C 498.175781 36.324219 461.902344 0.0507812 417.144531 0 L 139.144531 0 C 94.382812 0.0507812 58.109375 36.324219 58.058594 81.082031 L 58.058594 88.796875 C 49.523438 105.460938 43.984375 123.496094 41.703125 142.082031 L 9.851562 396.914062 C 3.628906 447.207031 21.320312 497.511719 57.65625 532.835938 L 34.894531 532.835938 C 15.703125 532.835938 0.144531 548.390625 0.144531 567.585938 L 0.144531 637.085938 C 0.144531 656.277344 15.703125 671.835938 34.894531 671.835938 L 60.191406 671.835938 C 65.082031 685.667969 78.136719 694.941406 92.808594 695.003906 L 463.476562 695.003906 C 478.148438 694.941406 491.203125 685.667969 496.09375 671.835938 L 521.394531 671.835938 C 540.585938 671.835938 556.144531 656.277344 556.144531 637.085938 L 556.144531 567.585938 C 556.144531 548.390625 540.585938 532.832031 521.394531 532.832031 Z M 523.457031 399.789062 C 527.753906 434.5625 518.742188 469.675781 498.226562 498.085938 L 498.226562 198.074219 Z M 139.144531 23.167969 L 417.144531 23.167969 C 449.113281 23.207031 475.023438 49.113281 475.058594 81.082031 L 475.058594 335.917969 L 451.894531 335.917969 L 451.894531 81.082031 C 451.894531 61.890625 436.335938 46.332031 417.144531 46.332031 L 139.144531 46.332031 C 119.953125 46.332031 104.394531 61.890625 104.394531 81.082031 L 104.394531 335.917969 L 81.226562 335.917969 L 81.226562 81.082031 C 81.265625 49.113281 107.171875 23.207031 139.144531 23.167969 Z M 428.726562 335.917969 L 127.558594 335.917969 L 127.558594 81.082031 C 127.558594 74.6875 132.746094 69.5 139.144531 69.5 L 417.144531 69.5 C 423.542969 69.5 428.726562 74.6875 428.726562 81.082031 Z M 32.832031 399.789062 L 58.058594 198.007812 L 58.058594 498.085938 C 37.546875 469.675781 28.535156 434.5625 32.832031 399.789062 Z M 23.308594 637.082031 L 23.308594 567.582031 C 23.308594 561.1875 28.496094 556 34.894531 556 L 58.058594 556 L 58.058594 648.667969 L 34.894531 648.667969 C 28.496094 648.667969 23.308594 643.480469 23.308594 637.082031 Z M 463.476562 671.832031 L 92.808594 671.832031 C 86.414062 671.832031 81.226562 666.648438 81.226562 660.25 L 81.226562 359.082031 L 475.0625 359.082031 L 475.0625 660.25 C 475.0625 666.648438 469.875 671.832031 463.476562 671.832031 Z M 532.976562 637.082031 C 532.976562 643.480469 527.789062 648.667969 521.394531 648.667969 L 498.226562 648.667969 L 498.226562 556 L 521.394531 556 C 527.792969 556 532.976562 561.1875 532.976562 567.582031 Z M 532.976562 637.082031 " style=" stroke:none;fill-rule:nonzero;fill:rgb(13.72549%,12.156863%,12.54902%);fill-opacity:1;" />
<path d="M 405.5625 463.335938 L 150.726562 463.335938 C 144.328125 463.335938 139.144531 468.519531 139.144531 474.917969 L 139.144531 637.082031 C 139.144531 643.480469 144.328125 648.667969 150.726562 648.667969 L 405.558594 648.667969 C 411.957031 648.667969 417.144531 643.480469 417.144531 637.082031 L 417.144531 474.917969 C 417.144531 468.519531 411.957031 463.335938 405.5625 463.335938 Z M 393.976562 625.5 L 162.308594 625.5 L 162.308594 486.5 L 393.976562 486.5 Z M 393.976562 625.5 " style=" stroke:none;fill-rule:nonzero;fill:rgb(13.72549%,12.156863%,12.54902%);fill-opacity:1;" />
<path d="M 104.394531 405.417969 L 417.144531 405.417969 L 417.144531 440.167969 L 440.3125 440.167969 L 440.3125 405.417969 L 451.894531 405.417969 L 451.894531 382.25 L 104.394531 382.25 Z M 104.394531 405.417969 " style=" stroke:none;fill-rule:nonzero;fill:rgb(13.72549%,12.156863%,12.54902%);fill-opacity:1;" />
<path d="M 150.726562 115.832031 L 370.808594 115.832031 L 370.808594 150.582031 L 393.976562 150.582031 L 393.976562 115.832031 L 405.5625 115.832031 L 405.5625 92.667969 L 150.726562 92.667969 Z M 150.726562 115.832031 " style=" stroke:none;fill-rule:nonzero;fill:rgb(13.72549%,12.156863%,12.54902%);fill-opacity:1;" />
</g>
</svg>