<svg height="512" viewBox="0 0 64 64" width="512" xmlns="http://www.w3.org/2000/svg"><g id="book"><path d="m3 15h48v34h-48z" fill="#e0e0e2"/><path d="m51 15v34h-48v-3h37a8 8 0 0 0 8-8v-23z" fill="#c6c5ca"/><path d="m3 6h48v9h-48z" fill="#2488ff"/><path d="m51 6v9h-48v-3h41a4 4 0 0 0 4-4v-2z" fill="#006df0"/><path d="m45 3v5a3 3 0 0 1 -6 0v-5z" fill="#ffde55"/><path d="m9 39h6v6h-6z" fill="#898890"/><path d="m9 29h6v6h-6z" fill="#898890"/><path d="m9 19h6v6h-6z" fill="#ff7956"/><path d="m15 19v6h-6v-2h2a2 2 0 0 0 2-2v-2z" fill="#ff5023"/><path d="m15 29v6h-6v-2h2a2 2 0 0 0 2-2v-2z" fill="#787680"/><path d="m15 39v6h-6v-2h2a2 2 0 0 0 2-2v-2z" fill="#787680"/><path d="m15 3v5a3 3 0 0 1 -6 0v-5z" fill="#ffde55"/><path d="m15 3v5a3 3 0 0 1 -5.87.87 3.1 3.1 0 0 0 .87.13 3 3 0 0 0 3-3v-3z" fill="#ffcd00"/><path d="m45 3v5a3 3 0 0 1 -5.87.87 3.1 3.1 0 0 0 .87.13 3 3 0 0 0 3-3v-3z" fill="#ffcd00"/><circle cx="22" cy="22" fill="#00d7df" r="3"/><path d="m25 22a3 3 0 0 1 -5.87.87 3.1 3.1 0 0 0 .87.13 3 3 0 0 0 3-3 3.1 3.1 0 0 0 -.13-.87 2.982 2.982 0 0 1 2.13 2.87z" fill="#00b6bd"/><circle cx="32" cy="22" fill="#00d7df" r="3"/><path d="m35 22a3 3 0 0 1 -5.87.87 3.1 3.1 0 0 0 .87.13 3 3 0 0 0 3-3 3.1 3.1 0 0 0 -.13-.87 2.982 2.982 0 0 1 2.13 2.87z" fill="#00b6bd"/><circle cx="42" cy="22" fill="#00d7df" r="3"/><path d="m45 22a3 3 0 0 1 -5.87.87 3.1 3.1 0 0 0 .87.13 3 3 0 0 0 3-3 3.1 3.1 0 0 0 -.13-.87 2.982 2.982 0 0 1 2.13 2.87z" fill="#00b6bd"/><circle cx="22" cy="32" fill="#00d7df" r="3"/><path d="m25 32a3 3 0 0 1 -5.87.87 3.1 3.1 0 0 0 .87.13 3 3 0 0 0 3-3 3.1 3.1 0 0 0 -.13-.87 2.982 2.982 0 0 1 2.13 2.87z" fill="#00b6bd"/><circle cx="22" cy="42" fill="#00d7df" r="3"/><path d="m25 42a3 3 0 0 1 -5.87.87 3.1 3.1 0 0 0 .87.13 3 3 0 0 0 3-3 3.1 3.1 0 0 0 -.13-.87 2.982 2.982 0 0 1 2.13 2.87z" fill="#00b6bd"/><path d="m61 31v26h-20v-28h18a2.006 2.006 0 0 1 2 2z" fill="#ffde55"/><path d="m61 31v26h-4v-26a2.006 2.006 0 0 0 -2-2h4a2.006 2.006 0 0 1 2 2z" fill="#ffcd00"/><path d="m61 61h-22a2.006 2.006 0 0 1 -2-2 2.015 2.015 0 0 1 2-2h22a2 2 0 0 0 0 4z" fill="#efeae4"/><path d="m61 61h-4a2 2 0 0 1 0-4h4a2 2 0 0 0 0 4z" fill="#d1d1d5"/><path d="m41 29v28h-2a2.015 2.015 0 0 0 -2 2v-28a2.006 2.006 0 0 1 2-2z" fill="#898890"/><path d="m15 18h-6a1 1 0 0 0 -1 1v6a1 1 0 0 0 1 1h6a1 1 0 0 0 1-1v-6a1 1 0 0 0 -1-1zm-1 6h-4v-4h4z"/><path d="m22 18a4 4 0 1 0 4 4 4 4 0 0 0 -4-4zm0 6a2 2 0 1 1 2-2 2 2 0 0 1 -2 2z"/><path d="m32.031 17.969a4 4 0 1 0 4 4 4 4 0 0 0 -4-4zm0 6a2 2 0 1 1 2-2 2 2 0 0 1 -2 2z"/><path d="m42.062 25.938a4 4 0 1 0 -4-4 4 4 0 0 0 4 4zm0-6a2 2 0 1 1 -2 2 2 2 0 0 1 2-2z"/><path d="m22 28a4 4 0 1 0 4 4 4 4 0 0 0 -4-4zm0 6a2 2 0 1 1 2-2 2 2 0 0 1 -2 2z"/><path d="m15 28h-6a1 1 0 0 0 -1 1v6a1 1 0 0 0 1 1h6a1 1 0 0 0 1-1v-6a1 1 0 0 0 -1-1zm-1 6h-4v-4h4z"/><path d="m22 38a4 4 0 1 0 4 4 4 4 0 0 0 -4-4zm0 6a2 2 0 1 1 2-2 2 2 0 0 1 -2 2z"/><path d="m15 38h-6a1 1 0 0 0 -1 1v6a1 1 0 0 0 1 1h6a1 1 0 0 0 1-1v-6a1 1 0 0 0 -1-1zm-1 6h-4v-4h4z"/><path d="m61 58a1 1 0 0 0 1-1v-26a3.009 3.009 0 0 0 -3-3h-7v-22a1 1 0 0 0 -1-1h-5v-2a1 1 0 0 0 -1-1h-6a1 1 0 0 0 -1 1v2h-22v-2a1 1 0 0 0 -1-1h-6a1 1 0 0 0 -1 1v2h-5a1 1 0 0 0 -1 1v43a1 1 0 0 0 1 1h33v9a3.009 3.009 0 0 0 3 3h22a1 1 0 0 0 0-2 1 1 0 0 1 0-2zm-21-54h4v4a2 2 0 0 1 -4 0zm-30 0h4v4a2 2 0 0 1 -4 0zm-6 3h4v1a4 4 0 0 0 8 0v-1h22v1a4 4 0 0 0 8 0v-1h4v7h-46zm32 24v17h-32v-32h46v12h-11a3.009 3.009 0 0 0 -3 3zm4-1v26h-1a3 3 0 0 0 -1 .18v-25.18a1 1 0 0 1 1-1zm18.17 30h-19.17a1 1 0 0 1 0-2h19.17a3.026 3.026 0 0 0 0 2zm1.83-4h-18v-26h17a1 1 0 0 1 1 1z"/></g></svg>