<svg height="543pt" viewBox="-4 0 543 543.015" width="543pt" xmlns="http://www.w3.org/2000/svg"><path d="m204.746094 338.261719v142.425781h124.625v-142.425781zm0 0" fill="#ffeb99"/><path d="m231.453125 275.953125 7.832031 62.308594h55.636719l7.746094-62.308594zm0 0" fill="#d80027"/><path d="m151.335938 89.015625v97.917969h97.921874v-35.605469c0-9.832031 7.96875-17.804687 17.800782-17.804687 9.832031 0 17.804687 7.972656 17.804687 17.804687v35.605469h97.917969v-97.917969zm0 0" fill="#ffeb99"/><path d="m267.058594 133.523438c-9.832032 0-17.804688 7.972656-17.804688 17.804687v124.625h35.609375v-124.625c0-9.832031-7.972656-17.804687-17.804687-17.804687zm0 0" fill="#ffeb99"/><path d="m195.847656 480.6875c-9.832031 0-17.804687 7.972656-17.804687 17.804688v35.605468h178.03125v-35.605468c0-9.832032-7.972657-17.804688-17.804688-17.804688zm0 0" fill="#006df0"/><path d="m418.386719 26.707031c0-9.832031-7.972657-17.804687-17.804688-17.804687s-17.804687 7.972656-17.804687 17.804687v222.539063c0 9.832031 7.972656 17.804687 17.804687 17.804687s17.804688-7.972656 17.804688-17.804687zm0 0" fill="#fff3c2"/><path d="m453.992188 53.410156c0-9.832031-7.96875-17.804687-17.800782-17.804687-9.832031 0-17.804687 7.972656-17.804687 17.804687v169.128906c0 9.832032 7.972656 17.804688 17.804687 17.804688 9.832032 0 17.800782-7.972656 17.800782-17.804688zm0 0" fill="#ffeb99"/><path d="m489.601562 80.113281c0-9.828125-7.972656-17.800781-17.804687-17.800781s-17.804687 7.972656-17.804687 17.800781v115.722657c0 9.832031 7.972656 17.804687 17.804687 17.804687s17.804687-7.972656 17.804687-17.804687zm0 0" fill="#fff3c2"/><path d="m507.402344 97.917969c-9.832032 0-17.804688 7.972656-17.804688 17.804687v53.410156c0 9.832032 7.972656 17.800782 17.804688 17.800782 9.832031 0 17.804687-7.96875 17.804687-17.800782v-53.410156c0-9.835937-7.972656-17.804687-17.804687-17.804687zm0 0" fill="#ffeb99"/><path d="m26.714844 97.917969c-9.832032 0-17.804688 7.972656-17.804688 17.804687v53.410156c0 9.832032 7.972656 17.800782 17.804688 17.800782 9.832031 0 17.804687-7.96875 17.804687-17.800782v-53.410156c0-9.835937-7.972656-17.804687-17.804687-17.804687zm0 0" fill="#ffeb99"/><path d="m151.335938 26.707031c0-9.832031-7.96875-17.804687-17.800782-17.804687-9.832031 0-17.804687 7.972656-17.804687 17.804687v222.539063c0 9.832031 7.972656 17.804687 17.804687 17.804687 9.832032 0 17.800782-7.972656 17.800782-17.804687zm0 0" fill="#fff3c2"/><path d="m97.929688 35.605469c-9.832032 0-17.804688 7.972656-17.804688 17.804687v169.132813c0 9.832031 7.972656 17.800781 17.804688 17.800781 9.832031 0 17.800781-7.96875 17.800781-17.800781v-169.132813c0-9.832031-7.96875-17.804687-17.800781-17.804687zm0 0" fill="#ffeb99"/><path d="m62.320312 62.3125c-9.832031 0-17.800781 7.972656-17.800781 17.800781v115.722657c0 9.832031 7.96875 17.804687 17.800781 17.804687 9.832032 0 17.804688-7.972656 17.804688-17.804687v-115.722657c0-9.832031-7.972656-17.800781-17.804688-17.800781zm0 0" fill="#fff3c2"/><path d="m222.550781 382.769531h17.804688v17.804688h-17.804688zm0 0"/><path d="m249.253906 382.769531h62.3125v17.804688h-62.3125zm0 0"/><path d="m222.550781 409.476562h35.609375v17.800782h-35.609375zm0 0"/><path d="m267.058594 409.476562h44.507812v17.800782h-44.507812zm0 0"/><path d="m231.453125 356.066406h71.214844v17.800782h-71.214844zm0 0"/><path d="m222.550781 436.179688h89.015625v17.804687h-89.015625zm0 0"/><path d="m507.402344 89.015625c-3.039063.03125-6.050782.585937-8.902344 1.640625v-10.542969c0-14.746093-11.957031-26.703125-26.703125-26.703125-3.039063.03125-6.050781.582032-8.902344 1.636719v-1.636719c0-14.75-11.957031-26.707031-26.707031-26.707031-3.039062.03125-6.050781.585937-8.902344 1.640625v-1.640625c.003906-14.746094-11.953125-26.703125-26.703125-26.703125-14.746093 0-26.703125 11.957031-26.703125 26.707031v53.40625h-213.640625v-53.40625c0-14.75-11.957031-26.707031-26.703125-26.707031-14.75 0-26.707031 11.957031-26.707031 26.707031v1.636719c-2.851563-1.054688-5.863281-1.609375-8.902344-1.636719-14.746093 0-26.703125 11.953125-26.703125 26.703125v1.636719c-2.851562-1.050781-5.863281-1.605469-8.902344-1.636719-14.75 0-26.707031 11.957032-26.707031 26.707032v10.539062c-2.851562-1.054688-5.863281-1.609375-8.902343-1.636719-14.746094 0-26.7031255 11.953125-26.7031255 26.703125v53.410156c0 14.75 11.9570315 26.707032 26.7031255 26.707032 3.039062-.03125 6.050781-.585938 8.902343-1.640625v1.640625c0 14.746094 11.957031 26.703125 26.707031 26.703125 3.039063-.027344 6.050782-.582031 8.902344-1.636719v1.636719c0 14.75 11.953125 26.707031 26.703125 26.707031 3.039063-.03125 6.050781-.585938 8.902344-1.640625v1.640625c0 14.746094 11.957031 26.703125 26.707031 26.703125s26.703125-11.953125 26.703125-26.703125v-53.414062h80.117188v71.214843h-8.902344c-4.917969 0-8.902344 3.988281-8.902344 8.902344 0 .371094.023438.742187.070313 1.113281l6.570312 52.296875h-24.441406c-4.917969 0-8.902344 3.984375-8.902344 8.902344v133.523437c-14.75 0-26.707031 11.953126-26.707031 26.703126v26.707031h-44.507813v17.804687h284.851563v-17.804687h-44.507813v-26.707031c0-14.75-11.953124-26.707032-26.703124-26.707032v-133.523437c0-4.914063-3.988282-8.902344-8.902344-8.902344h-24.371094l6.496094-52.304687c.609375-4.878907-2.851563-9.328126-7.726563-9.9375-.367187-.046876-.734375-.066407-1.101562-.066407h-8.902344v-71.214843h80.113281v53.410156c0 14.75 11.957032 26.707031 26.707032 26.707031s26.707031-11.957031 26.707031-26.707031v-1.636719c2.847656 1.050781 5.859375 1.605469 8.898437 1.636719 14.75 0 26.707032-11.957032 26.707032-26.707032v-1.636718c2.851562 1.054687 5.863281 1.609375 8.902343 1.636718 14.746094 0 26.703125-11.953124 26.703125-26.703124v-1.636719c2.851563 1.050781 5.863282 1.605469 8.902344 1.636719 14.75 0 26.707031-11.957032 26.707031-26.707032v-53.40625c-.003906-14.75-11.960937-26.707031-26.710937-26.707031zm-480.6875 89.015625c-4.914063 0-8.902344-3.984375-8.902344-8.898438v-53.410156c0-4.917968 3.988281-8.902344 8.902344-8.902344 4.914062 0 8.902344 3.984376 8.902344 8.902344v53.410156c0 4.914063-3.988282 8.898438-8.902344 8.898438zm35.605468 26.707031c-4.914062 0-8.898437-3.984375-8.898437-8.902343v-115.722657c0-4.914062 3.984375-8.898437 8.898437-8.898437 4.917969 0 8.902344 3.984375 8.902344 8.898437v115.722657c0 4.917968-3.984375 8.902343-8.902344 8.902343zm35.609376 26.703125c-4.917969 0-8.902344-3.984375-8.902344-8.902344v-169.128906c0-4.917968 3.984375-8.902344 8.902344-8.902344 4.914062 0 8.898437 3.984376 8.898437 8.902344v169.128906c0 4.917969-3.984375 8.902344-8.898437 8.902344zm44.507812 17.804688c0 4.914062-3.988281 8.902344-8.902344 8.902344-4.917968 0-8.902344-3.988282-8.902344-8.902344v-222.539063c0-4.917969 3.984376-8.902343 8.902344-8.902343 4.914063 0 8.902344 3.984374 8.902344 8.902343zm204.734375 249.246094v26.707031h-160.226563v-26.707031c0-4.914063 3.984376-8.902344 8.902344-8.902344h142.421875c4.917969 0 8.902344 3.984375 8.902344 8.902344zm-26.703125-26.707032h-106.820312v-124.621094h106.820312zm-73.332031-142.425781-5.589844-44.507813h51.042969l-5.527344 44.507813zm11.019531-62.308594v-115.722656c0-4.917969 3.988281-8.902344 8.902344-8.902344 4.917968 0 8.902344 3.984375 8.902344 8.902344v115.722656zm35.609375-89.019531v-26.703125c0-14.75-11.957031-26.707031-26.707031-26.707031s-26.703125 11.957031-26.703125 26.707031v26.703125h-80.117188v-80.113281h213.640625v80.117187zm115.71875 71.214844c0 4.914062-3.984375 8.902344-8.902344 8.902344-4.914062 0-8.898437-3.988282-8.898437-8.902344v-222.539063c0-4.917969 3.984375-8.902343 8.898437-8.902343 4.917969 0 8.902344 3.984374 8.902344 8.902343zm35.605469-26.707032c0 4.917969-3.984375 8.902344-8.898438 8.902344-4.917968 0-8.902344-3.984375-8.902344-8.902344v-169.128906c0-4.917968 3.984376-8.902344 8.902344-8.902344 4.914063 0 8.898438 3.984376 8.898438 8.902344zm35.609375-26.703124c0 4.917968-3.984375 8.902343-8.902344 8.902343-4.914063 0-8.902344-3.984375-8.902344-8.902343v-115.722657c0-4.914062 3.988281-8.898437 8.902344-8.898437 4.917969 0 8.902344 3.984375 8.902344 8.898437zm35.605469-26.703126c0 4.914063-3.988282 8.898438-8.902344 8.898438-4.914063 0-8.902344-3.984375-8.902344-8.898438v-53.410156c0-4.917968 3.988281-8.902344 8.902344-8.902344 4.914062 0 8.902344 3.984376 8.902344 8.902344zm0 0"/></svg>