<svg height="480pt" viewBox="0 -28 480.01102 480" width="480pt" xmlns="http://www.w3.org/2000/svg"><path d="m448.003906 200.007812 24 32h-48zm0 0" fill="#787680"/><path d="m472.003906 136.007812-24 13.28125-48 26.480469-102 56.238281-58 32-58-32-102-56.238281-72-39.761719 232-128zm-232 91.441407 165.761719-91.441407-165.761719-91.4375-165.757812 91.4375zm0 0" fill="#957856"/><path d="m440.003906 352.007812v32c0 17.675782-14.324218 32-32 32h-96c-17.671875 0-32-14.324218-32-32v-80c0-17.671874 14.328125-32 32-32h96c17.675782 0 32 14.328126 32 32zm-32 32v-80h-96v80zm0 0" fill="#006df0"/><path d="m312.003906 304.007812h96v80h-96zm0 0" fill="#9bc9ff"/><path d="m405.765625 136.007812-165.761719 91.441407-165.757812-91.441407 165.757812-91.4375zm0 0" fill="#c0ab91"/><path d="m400.003906 175.769531v56.238281h-102zm0 0" fill="#c0ab91"/><path d="m40.003906 352.007812v-48c0-17.671874 14.328125-32 32-32h96c17.675782 0 32 14.328126 32 32v80c0 17.675782-14.324218 32-32 32h-96c-17.671875 0-32-14.324218-32-32zm128 32v-80h-96v80zm0 0" fill="#006df0"/><path d="m182.003906 232.007812h-102v-56.238281zm0 0" fill="#c0ab91"/><path d="m72.003906 304.007812h96v80h-96zm0 0" fill="#9bc9ff"/><path d="m144.003906 384.007812c0 4.417969-3.582031 8-8 8-4.417968 0-8-3.582031-8-8 0-4.417968 3.582032-8 8-8 4.417969 0 8 3.582032 8 8zm0 0"/><path d="m128.003906 304.007812c0 4.417969-3.582031 8-8 8-4.417968 0-8-3.582031-8-8 0-4.417968 3.582032-8 8-8 4.417969 0 8 3.582032 8 8zm0 0"/><path d="m104.003906 376.007812h-24v-72c0-4.417968-3.582031-8-8-8-4.417968 0-8 3.582032-8 8v80c-.019531 2.128907.816406 4.175782 2.320313 5.679688 1.503906 1.507812 3.554687 2.34375 5.679687 2.320312h32c4.417969 0 8-3.582031 8-8 0-4.417968-3.582031-8-8-8zm0 0"/><path d="m168.003906 296.007812h-16c-4.417968 0-8 3.582032-8 8 0 4.417969 3.582032 8 8 8h8v56c0 4.417969 3.582032 8 8 8 4.417969 0 8-3.582031 8-8v-64c.023438-2.128906-.8125-4.175781-2.316406-5.679687-1.507812-1.503906-3.554688-2.339844-5.683594-2.320313zm0 0"/><path d="m408.003906 296.007812h-16c-4.417968 0-8 3.582032-8 8 0 4.417969 3.582032 8 8 8h8v56c0 4.417969 3.582032 8 8 8 4.417969 0 8-3.582031 8-8v-64c.023438-2.128906-.8125-4.175781-2.316406-5.679687-1.507812-1.503906-3.554688-2.339844-5.683594-2.320313zm0 0"/><path d="m344.003906 376.007812h-24v-72c0-4.417968-3.582031-8-8-8-4.417968 0-8 3.582032-8 8v80c-.003906 2.125.828125 4.167969 2.320313 5.679688 1.507812 1.503906 3.554687 2.339844 5.679687 2.320312h32c4.417969 0 8-3.582031 8-8 0-4.417968-3.582031-8-8-8zm0 0"/><path d="m384.003906 384.007812c0 4.417969-3.582031 8-8 8-4.417968 0-8-3.582031-8-8 0-4.417968 3.582032-8 8-8 4.417969 0 8 3.582032 8 8zm0 0"/><path d="m368.003906 304.007812c0 4.417969-3.582031 8-8 8-4.417968 0-8-3.582031-8-8 0-4.417968 3.582032-8 8-8 4.417969 0 8 3.582032 8 8zm0 0"/><path d="m472.003906 296.007812c-4.417968 0-8 3.582032-8 8v12.6875l-16 16v-28.6875c-.023437-22.078124-17.917968-39.972656-40-40h-96c-22.078125.027344-39.972656 17.921876-40 40v32h-64v-32c-.023437-22.078124-17.917968-39.972656-40-40h-96c-22.078125.027344-39.972656 17.921876-40 40v28.6875l-16-16v-12.6875c0-4.417968-3.582031-8-8-8-4.417968 0-7.99999975 3.582032-7.99999975 8v16c.00390625 2.121094.84374975 4.15625 2.34374975 5.65625l29.65625 29.65625v28.6875c.027344 22.082032 17.921875 39.972657 40 40h96c22.082032-.027343 39.976563-17.917968 40-40v-32h64v32c.027344 22.082032 17.921875 39.972657 40 40h96c22.082032-.027343 39.976563-17.917968 40-40v-28.6875l29.65625-29.65625c1.5-1.5 2.34375-3.535156 2.34375-5.65625v-16c0-4.417968-3.582031-8-8-8zm-280 88c0 13.253907-10.742187 24-24 24h-96c-13.253906 0-24-10.746093-24-24v-80c0-13.253906 10.746094-24 24-24h96c13.257813 0 24 10.746094 24 24zm240 0c0 13.253907-10.742187 24-24 24h-96c-13.253906 0-24-10.746093-24-24v-80c0-13.253906 10.746094-24 24-24h96c13.257813 0 24 10.746094 24 24zm0 0"/><path d="m4.140625 143.015625 67.863281 37.441406v51.550781c0 4.417969 3.582032 8 8 8h99.929688l56.207031 31.007813c2.40625 1.328125 5.324219 1.328125 7.730469 0l56.207031-31.007813h99.925781c4.417969 0 8-3.582031 8-8v-51.550781l32-17.648437v34.535156l-22.398437 29.863281c-1.816407 2.425781-2.109375 5.667969-.753907 8.378907 1.355469 2.710937 4.125 4.421874 7.152344 4.421874h48c3.03125 0 5.800782-1.710937 7.15625-4.421874 1.355469-2.710938 1.0625-5.953126-.753906-8.378907l-22.402344-29.863281v-43.367188l19.867188-10.960937c2.554687-1.40625 4.140625-4.089844 4.140625-7.007813 0-2.914062-1.585938-5.601562-4.140625-7.007812l-232-128c-2.40625-1.324219-5.324219-1.324219-7.730469 0l-232 128c-2.554687 1.40625-4.140625 4.09375-4.140625 7.007812 0 2.917969 1.585938 5.601563 4.140625 7.007813zm83.863281 80.992187v-34.71875l62.929688 34.71875zm304 0h-62.925781l62.925781-34.71875zm48 0 8-10.664062 8 10.664062zm-200-206.855468 215.441406 118.855468-215.441406 118.855469-215.4375-118.855469zm0 0"/><path d="m280.484375 76.007812c1.1875.695313 2.542969 1.058594 3.921875 1.039063 2.910156-.003906 5.582031-1.601563 6.960938-4.167969 1.03125-1.847656 1.292968-4.03125.71875-6.070312-.613282-2.035156-1.988282-3.757813-3.839844-4.800782l-28-15.445312c-.148438-.058594-.285156-.136719-.410156-.234375l-16-8.800781c-2.398438-1.269532-5.269532-1.269532-7.671876 0l-25.679687 14.160156c-1.894531.992188-3.289063 2.734375-3.839844 4.800781-.558593 2.03125-.328125 4.199219.640625 6.074219 2.222656 3.808594 7.058594 5.191406 10.960938 3.125l21.757812-12zm0 0"/><path d="m350.558594 114.730469 38.640625 21.277343-6 3.28125c-3.871094 2.132813-5.300781 6.988282-3.203125 10.878907 1.429687 2.550781 4.117187 4.136719 7.042968 4.160156 1.335938.003906 2.652344-.324219 3.832032-.960937l18.726562-10.398438c2.558594-1.382812 4.152344-4.054688 4.160156-6.960938-.023437-2.921874-1.609374-5.609374-4.160156-7.039062l-51.28125-28.320312c-3.894531-2.035157-8.703125-.621094-10.878906 3.199218-1.035156 1.855469-1.292969 4.042969-.71875 6.089844.609375 2.035156 1.984375 3.753906 3.839844 4.792969zm0 0"/><path d="m246.964844 231.609375c1.339844.007813 2.660156-.324219 3.839844-.960937l70.074218-38.640626c1.835938-1.042968 3.1875-2.765624 3.765625-4.800781.640625-2.023437.40625-4.222656-.640625-6.070312-2.207031-3.777344-6.976562-5.179688-10.878906-3.199219l-70.078125 38.71875c-3.832031 2.167969-5.21875 7.003906-3.121094 10.871094 1.449219 2.523437 4.132813 4.078125 7.039063 4.082031zm0 0"/><path d="m151.925781 99.609375c.632813-2.03125.402344-4.234375-.640625-6.089844-2.183594-3.804687-6.980468-5.214843-10.878906-3.199219l-70 38.648438c-1.878906 1.015625-3.265625 2.746094-3.847656 4.800781-.632813 2.023438-.402344 4.222657.640625 6.070313 1.414062 2.570312 4.113281 4.164062 7.046875 4.167968 1.351562.015626 2.679687-.34375 3.839844-1.039062l70.078124-38.558594c1.835938-1.046875 3.1875-2.769531 3.761719-4.800781zm0 0"/><path d="m180.804688 185.609375-70.078126-38.640625c-3.90625-1.980469-8.675781-.578125-10.890624 3.199219-1.023438 1.847656-1.269532 4.023437-.683594 6.050781.585937 2.027344 1.960937 3.738281 3.8125 4.75l70.082031 38.640625c1.15625.695313 2.480469 1.054687 3.832031 1.039063 2.929688 0 5.628906-1.59375 7.046875-4.160157 1.042969-1.851562 1.273438-4.054687.632813-6.078125-.570313-2.035156-1.917969-3.757812-3.753906-4.800781zm0 0"/><path d="m184.003906 80.007812c0 4.417969-3.582031 8-8 8-4.417968 0-8-3.582031-8-8 0-4.417968 3.582032-8 8-8 4.417969 0 8 3.582032 8 8zm0 0"/><path d="m328.003906 88.007812c0 4.417969-3.582031 8-8 8-4.417968 0-8-3.582031-8-8 0-4.417968 3.582032-8 8-8 4.417969 0 8 3.582032 8 8zm0 0"/><path d="m352.003906 168.007812c0 4.417969-3.582031 8-8 8-4.417968 0-8-3.582031-8-8 0-4.417968 3.582032-8 8-8 4.417969 0 8 3.582032 8 8zm0 0"/><path d="m216.003906 208.007812c0 4.417969-3.582031 8-8 8-4.417968 0-8-3.582031-8-8 0-4.417968 3.582032-8 8-8 4.417969 0 8 3.582032 8 8zm0 0"/></svg>