<svg height="480pt" viewBox="0 -9 480 479" width="480pt" xmlns="http://www.w3.org/2000/svg"><path d="m51.953125 340.710938 226.269531-226.273438-28.285156-28.285156 107.488281-5.65625-5.65625 107.488281-28.289062-28.289063-226.28125 226.273438zm0 0" fill="#d80027"/><path d="m35.953125 148.710938 106.269531-106.273438-28.285156-28.285156 107.488281-5.65625-5.65625 107.488281-28.289062-28.289063-106.28125 106.273438zm0 0" fill="#ffeb99"/><path d="m400 125.917969c-4.417969 0-8 3.582031-8 8v72h-72c-4.417969 0-8 3.582031-8 8v72h-72c-4.417969 0-8 3.582031-8 8v72h-72c-4.417969 0-8 3.582031-8 8v72h-152v16h160c4.417969 0 8-3.582031 8-8v-72h72c4.417969 0 8-3.582031 8-8v-72h72c4.417969 0 8-3.582031 8-8v-72h72c4.417969 0 8-3.582031 8-8v-72h72v-16zm0 0"/><path d="m266.910156 114.4375-220.613281 220.617188c-3.125 3.125-3.125 8.1875 0 11.3125l45.246094 45.257812c3.125 3.121094 8.1875 3.121094 11.3125 0l220.625-220.617188 22.632812 22.625c2.230469 2.234376 5.570313 2.945313 8.523438 1.8125 2.949219-1.128906 4.957031-3.890624 5.125-7.046874l5.652343-107.480469c.113282-2.265625-.734374-4.472657-2.335937-6.078125-1.613281-1.585938-3.816406-2.429688-6.078125-2.328125l-107.488281 5.65625c-3.152344.167969-5.910157 2.175781-7.039063 5.121093-1.128906 2.949219-.421875 6.285157 1.808594 8.519532zm82.058594-25.484375-4.25 80.671875-15.582031-15.585938c-3.125-3.121093-8.1875-3.121093-11.3125 0l-220.625 220.617188-33.933594-33.945312 220.613281-220.617188c3.125-3.121094 3.125-8.1875 0-11.308594l-15.582031-15.585937zm0 0"/><path d="m75.542969 199.625c3.125 3.121094 8.1875 3.121094 11.3125 0l100.625-100.617188 22.632812 22.625c2.230469 2.234376 5.570313 2.945313 8.523438 1.8125 2.949219-1.128906 4.957031-3.890624 5.125-7.046874l5.652343-107.480469c.121094-2.265625-.726562-4.472657-2.332031-6.078125-1.605469-1.601563-3.816406-2.449219-6.082031-2.328125l-107.488281 5.65625c-3.152344.167969-5.910157 2.175781-7.039063 5.121093-1.128906 2.949219-.421875 6.285157 1.808594 8.519532l22.628906 22.628906-100.613281 100.617188c-3.125 3.125-3.125 8.1875 0 11.3125zm72.335937-151.53125c3.125-3.121094 3.125-8.1875 0-11.308594l-15.582031-15.585937 80.671875-4.246094-4.25 80.671875-15.582031-15.585938c-3.125-3.121093-8.1875-3.121093-11.3125 0l-100.625 100.617188-33.933594-33.945312zm0 0"/><path d="m384 381.917969h16v16h-16zm0 0"/><path d="m408 381.917969h56v16h-56zm0 0"/><path d="m384 405.917969h80v16h-80zm0 0"/><path d="m384 429.917969h80v16h-80zm0 0"/></svg>